<?xml version="1.0" ?><svg id="Lager_1" style="enable-background:new 0 0 128 128;" version="1.1" viewBox="0 0 128 128" xml:space="preserve" xmlns="http://www.w3.org/2000/svg" xmlns:xlink="http://www.w3.org/1999/xlink"><style type="text/css">
	.st0{fill:#F7EEED;}
	.st1{fill:#FF886E;}
</style><g><g><g><g><circle class="st0" cx="64" cy="64" r="50"/></g></g></g></g><path class="st1" d="M71.5,61.7c-1.8-1.8-3.5-3.5-5.2-5.2c0.1-0.1,0.1-0.2,0.2-0.2c2.9-2.9,5.8-5.8,8.7-8.7c1.3-1.3,3.6-1.4,5,0  c4.7,4.6,9.3,9.3,14,14c1.3,1.3,1.3,3.7,0,5c-4.6,4.6-9.3,9.3-13.9,13.9c-1.4,1.4-3.7,1.3-5.1,0C71,76.3,66.9,72.2,62.8,68  c-1.3-1.3-2.5-2.6-3.8-3.9c-2.8-2.9-5.7-5.7-8.5-8.6c-0.1-0.1-0.1-0.1-0.1-0.1c-2.9,2.9-5.7,5.7-8.5,8.5c2.8,2.8,5.6,5.6,8.5,8.5  c2-2,4.1-4.1,6.1-6.1c1.8,1.8,3.5,3.5,5.2,5.2c-0.1,0.1-0.2,0.2-0.2,0.3c-2.8,2.8-5.7,5.7-8.5,8.5c-1.4,1.4-3.7,1.4-5.2,0  c-4.6-4.6-9.2-9.2-13.9-13.9c-1.3-1.3-1.3-3.7,0-5c4.6-4.6,9.3-9.3,13.9-13.9c1.2-1.2,3.3-1.3,4.6-0.3c0.2,0.2,0.4,0.4,0.6,0.6  c3.5,3.5,7.1,7,10.6,10.6c1.8,1.8,3.5,3.6,5.2,5.3c2.9,2.9,5.7,5.8,8.6,8.7c0.1,0.1,0.1,0.1,0.2,0.2c0.1-0.1,0.2-0.1,0.3-0.2  c2.7-2.7,5.4-5.4,8.1-8.1c0.2-0.2,0.3-0.3,0-0.5c-2.7-2.7-5.4-5.4-8.2-8.1c-0.1-0.1-0.1-0.1-0.1-0.1C75.7,57.6,73.6,59.6,71.5,61.7z  "/></svg>