<?xml version="1.0" ?><!DOCTYPE svg  PUBLIC '-//W3C//DTD SVG 1.1//EN'  'http://www.w3.org/Graphics/SVG/1.1/DTD/svg11.dtd'><svg enable-background="new 0 0 128 128" height="128px" id="Layer_1" version="1.1" viewBox="0 0 128 128" width="128px" xml:space="preserve" xmlns="http://www.w3.org/2000/svg" xmlns:xlink="http://www.w3.org/1999/xlink"><g><path d="M108.04,46.701c0,9.156-7.674,16.605-17.105,16.605h-11.76v2h11.76c10.535,0,19.105-8.347,19.105-18.606   s-8.57-18.606-19.105-18.606H43.825v2h47.109C100.366,30.095,108.04,37.544,108.04,46.701z" fill="#2BACE2"/><path d="M19.96,81.799c0-9.094,7.674-16.492,17.106-16.492H48.55v-2H37.066c-10.535,0-19.106,8.295-19.106,18.493   s8.571,18.493,19.106,18.493h47.109v-2H37.066C27.634,98.292,19.96,90.894,19.96,81.799z" fill="#2BACE2"/><path d="M39.71,18H17.96v22.125h21.75V18z M37.71,38.125H19.96V20h17.75V38.125z" fill="#2BACE2"/><path d="M74.194,74.497V53.529H53.226v20.968H74.194z M55.226,55.529h16.968v16.968H55.226V55.529z" fill="#2BACE2"/><path d="M88.21,110h20.968V88H88.21V110z M90.21,90h16.968v18H90.21V90z" fill="#2BACE2"/></g></svg>