<?xml version="1.0" ?><!DOCTYPE svg  PUBLIC '-//W3C//DTD SVG 1.1//EN'  'http://www.w3.org/Graphics/SVG/1.1/DTD/svg11.dtd'><svg enable-background="new 0 0 128 128" height="128px" id="Layer_1" version="1.1" viewBox="0 0 128 128" width="128px" xml:space="preserve" xmlns="http://www.w3.org/2000/svg" xmlns:xlink="http://www.w3.org/1999/xlink"><path d="M89.145,65.088c0.502,4.879,4.635,8.697,9.645,8.697c5.348,0,9.697-4.352,9.697-9.697  c0-5.346-4.352-9.696-9.697-9.696c-5.01,0-9.143,3.818-9.645,8.696H59.554V32.056c0-1.865,1.517-3.382,3.381-3.382h26.21  c0.502,4.878,4.635,8.695,9.645,8.695c5.348,0,9.697-4.35,9.697-9.697c0-5.347-4.352-9.697-9.697-9.697  c-5.01,0-9.145,3.819-9.645,8.699h-26.21c-2.967,0-5.381,2.414-5.381,5.382v31.033H38.855c-0.502-4.878-4.636-8.696-9.645-8.696  c-5.348,0-9.697,4.35-9.697,9.696s4.352,9.698,9.697,9.698c5.009,0,9.143-3.818,9.645-8.697h18.697v30.857  c0,2.967,2.414,5.381,5.381,5.381h26.209c0.502,4.879,4.637,8.697,9.646,8.697c5.347,0,9.696-4.352,9.696-9.697  c0-5.348-4.351-9.697-9.696-9.697c-5.009,0-9.144,3.818-9.646,8.697H62.935c-1.864,0-3.381-1.518-3.381-3.381V65.088H89.145z   M98.788,56.392c4.244,0,7.696,3.453,7.696,7.696c0,4.244-3.452,7.697-7.696,7.697s-7.696-3.453-7.696-7.697  C91.092,59.845,94.544,56.392,98.788,56.392z M98.788,19.975c4.244,0,7.696,3.453,7.696,7.697c0,4.244-3.452,7.697-7.696,7.697  c-3.904,0-7.13-2.924-7.623-6.695h0.151v-2h-0.152C91.656,22.901,94.883,19.975,98.788,19.975z M29.212,71.787  c-4.244,0-7.697-3.453-7.697-7.698c0-4.244,3.453-7.696,7.697-7.696s7.696,3.453,7.696,7.696  C36.908,68.332,33.456,71.787,29.212,71.787z M98.788,92.631c4.244,0,7.696,3.453,7.696,7.697s-3.452,7.695-7.696,7.695  c-3.904,0-7.131-2.926-7.624-6.695h0.152v-2h-0.152C91.657,95.555,94.884,92.631,98.788,92.631z" fill="#2BACE2"/></svg>